<?xml version="1.0" standalone="no"?>
<!DOCTYPE svg PUBLIC "-//W3C//DTD SVG 20010904//EN"
 "http://www.w3.org/TR/2001/REC-SVG-20010904/DTD/svg10.dtd">
<svg version="1.0" xmlns="http://www.w3.org/2000/svg"
 width="80.000000pt" height="80.000000pt" viewBox="0 0 80.000000 80.000000"
 preserveAspectRatio="xMidYMid meet">
<metadata>
Created by potrace 1.11, written by Peter Selinger 2001-2013
</metadata>
<g transform="translate(0.000000,80.000000) scale(0.100000,-0.100000)"
fill="#000000" stroke="none">
<path d="M262 751 c-55 -20 -121 -66 -159 -110 -25 -29 -30 -46 -11 -35 8 4
10 3 5 -2 -5 -5 -14 -9 -20 -9 -7 0 -11 -9 -9 -19 2 -10 -1 -15 -6 -12 -15 9
-23 -23 -12 -44 15 -28 12 -36 -6 -14 -13 16 -15 16 -10 2 3 -10 1 -18 -4 -18
-6 0 -10 -15 -9 -32 0 -27 2 -29 8 -13 5 11 7 23 5 27 -3 4 1 10 7 14 9 5 10
-1 5 -19 -3 -14 -3 -28 2 -31 4 -2 9 5 10 17 6 53 7 62 12 67 12 12 43 86 41
98 -1 7 2 11 7 10 5 -2 25 14 46 34 20 20 63 50 94 65 49 24 69 28 142 28 74
0 92 -4 140 -28 97 -50 175 -143 195 -234 3 -18 10 -33 15 -33 5 0 4 17 -2 38
-28 102 -100 189 -198 238 -74 38 -208 44 -288 15z m-188 -206 c-4 -8 -11 -12
-16 -9 -6 4 -5 10 3 15 19 12 19 11 13 -6z"/>
<path d="M290 654 c0 -5 20 -29 45 -54 l45 -45 -30 -32 c-17 -18 -38 -36 -46
-41 -10 -5 -14 -15 -9 -21 4 -8 22 4 51 36 l45 48 43 -48 c24 -27 46 -45 49
-40 3 5 -39 53 -94 107 -54 54 -99 94 -99 90z"/>
<path d="M442 613 c-24 -24 -42 -46 -40 -49 2 -2 24 16 48 41 24 25 42 47 39
49 -2 2 -24 -16 -47 -41z"/>
<path d="M52 403 c-25 -9 -34 -53 -17 -79 16 -24 65 -34 65 -13 0 5 -3 8 -7 6
-16 -9 -53 13 -53 31 0 25 25 46 45 39 8 -4 17 -2 20 3 4 6 3 10 -2 11 -4 0
-15 2 -23 3 -8 2 -21 1 -28 -1z"/>
<path d="M255 401 c-11 -10 -4 -23 10 -17 8 3 16 1 16 -4 1 -6 2 -16 3 -22 1
-7 -1 -23 -6 -35 -6 -19 -4 -23 11 -23 16 0 18 6 13 46 -5 45 -4 46 19 39 20
-6 22 -5 11 6 -12 13 -67 21 -77 10z"/>
<path d="M489 407 c0 -1 -2 -26 -3 -54 -3 -48 -1 -53 18 -53 15 0 17 3 8 12
-14 14 -16 28 -3 28 5 0 13 -9 16 -20 3 -11 13 -20 22 -20 14 0 14 2 -1 19
-15 16 -15 22 -4 40 14 24 4 39 -30 46 -12 2 -22 3 -23 2z m41 -26 c0 -12 -20
-25 -27 -18 -7 7 6 27 18 27 5 0 9 -4 9 -9z"/>
<path d="M580 393 c0 -7 6 -10 16 -6 15 5 16 0 12 -40 -5 -39 -3 -47 11 -47
13 0 15 9 12 47 -3 40 -1 45 14 39 11 -4 15 -2 13 6 -6 17 -78 18 -78 1z"/>
<path d="M684 353 c1 -54 1 -54 31 -51 17 2 30 7 30 13 0 5 -10 8 -22 7 -18
-3 -21 0 -17 13 4 9 13 14 20 11 7 -3 16 -1 19 4 6 10 -7 14 -32 11 -8 -1 -10
5 -6 14 3 10 13 15 25 12 11 -3 18 -1 15 6 -2 6 -17 11 -33 12 -30 1 -30 1
-30 -52z"/>
<path d="M150 354 c-24 -56 -24 -54 -5 -54 8 0 15 9 15 20 0 13 7 20 20 20 13
0 20 -7 20 -20 0 -12 7 -20 16 -20 9 0 14 3 12 8 -2 4 -13 26 -24 49 -10 24
-22 43 -26 43 -4 0 -16 -21 -28 -46z"/>
<path d="M381 355 c-25 -54 -25 -55 -6 -55 10 0 15 7 13 18 -2 11 4 18 20 20
17 3 22 -2 22 -17 0 -12 6 -21 15 -21 11 0 13 4 6 18 -5 9 -16 32 -23 50 -7
17 -16 32 -19 32 -4 0 -16 -20 -28 -45z"/>
<path d="M55 256 c15 -67 96 -155 181 -197 42 -20 64 -24 149 -24 87 0 107 3
156 26 31 15 75 46 98 70 41 42 87 116 78 125 -2 3 -10 -9 -17 -26 -9 -21 -15
-27 -21 -19 -4 7 -1 19 7 26 16 17 19 43 3 43 -5 0 -7 -4 -4 -10 3 -6 1 -10
-5 -10 -6 0 -8 -5 -5 -10 3 -5 1 -10 -5 -10 -7 0 -10 -6 -7 -14 3 -8 -1 -17
-9 -20 -9 -3 -12 -11 -9 -16 5 -8 11 -7 21 1 8 7 14 7 14 1 0 -5 -6 -15 -14
-21 -11 -9 -15 -9 -19 1 -3 9 -13 4 -32 -16 -16 -15 -47 -41 -71 -56 -24 -15
-42 -29 -40 -31 5 -5 -8 -6 -114 -15 -63 -5 -85 -2 -134 17 -73 27 -145 92
-182 162 -17 35 -24 42 -19 23z m568 -129 c-16 -16 -41 -36 -58 -44 -34 -17
-27 -9 28 31 20 15 35 31 33 35 -3 4 2 8 10 8 10 0 6 -10 -13 -30z"/>
</g>
</svg>
